<?xml version="1.0" encoding="UTF-8"?>
<svg version="1.1" viewBox="0 0 2048 2048" width="512" height="512" xmlns="http://www.w3.org/2000/svg">
<path transform="translate(1520,528)" d="m0 0h62l34 3 39 6 27 6 32 9 27 9 32 13 29 14 19 10 23 14 19 13 19 14 17 14 13 12 8 7 16 16 7 8 13 15 15 20 18 27 10 18 9 17 10 23 9 25 7 24 6 28 5 33 1 8 2 1v107l-2 3-5 35-7 36-8 31-8 25-7 20-6 10-8 7-8 3-14 1-11-3-8-4-8-8-5-10-1-4v-8l9-46 4-26 3-30 1-16v-44l-2-28-4-30-7-35-8-29-8-21-11-24-12-21-15-22-14-17-9-10-3-3v-2l-4-2v-2l-4-2v-2l-4-2-7-7-11-9-15-12-21-14-20-12-23-12-19-9-26-10-28-9-28-7-26-5-34-4-15-1h-53l-31 3-24 4-22 5-19 5-27 9-29 12-24 12-20 12-15 10-11 8-13 10-14 12-13 12-16 16-7 8-9 10-11 14-13 16-10 14-16 23-11 17-8 13-10 16-13 21-24 40-14 24-13 23-10 18-7 12 1 7 15 25 16 24 13 18 14 19 14 17 9 11 9 10 7 8 11 12 17 17v2l4 2 14 14 2 1v2l4 2 13 12 11 9 12 10 12 9 19 14 24 16 20 12 21 12 17 9 33 15 29 11 30 10 36 9 28 5 29 3 16 1h31l34-3 31-5 29-7 6-1h19l12 3 13 7 10 8 9 11 6 13 2 10v20l-4 14-8 13-4 5-10 8-17 9-26 8-25 4-22 2h-46l-40-3-36-5-24-4-27-6-27-8-26-9-28-11-37-17-19-10-18-10-20-12-36-24-32-24-14-12-11-9-13-12-4-3v-2l-4-2-42-42-7-8-11-12-11-14-10-12-13-17-14-19-12-18-13-20-16-27-13-24-2-3-6 8-11 17-15 23-15 22-10 14-11 15-8 11-21 27-11 14-13 15-9 11-10 11-7 8-3 4h-2l-2 4-12 12-5 6-7 6-5 6-8 7-9 9-8 7-11 10-11 9-13 11-13 10-19 14-15 10-22 14-25 14-26 13-19 8-21 8-26 8-28 7-29 5-28 3-16 1h-28l-31-2-29-4-34-7-32-9-32-11-24-10-25-11-24-12-27-16-15-10-14-10-14-11-17-14-8-8-8-7-16-16v-2h-2l-7-8-11-13-11-14-13-18-11-17-11-19-12-23-11-24-10-27-9-28-7-28-5-27-5-34-1-4v-97l2-9 5-35 8-38 10-35 9-26 12-29 15-31 14-24 10-16 9-13 10-14 11-14 12-14 11-12 5-6 4-4h2l2-4 8-7 12-11 11-9 18-14 24-16 22-13 21-11 30-13 36-12 27-7 32-6 34-4 14-1h64l34 3 34 5 28 6 30 8 35 12 26 11 29 14 25 14 20 13 16 11 18 14 13 11 14 12 16 16 6 9 2 6v13l-5 12-9 10-7 5-9 3h-15l-10-5-16-15-14-13-14-11-13-10-26-17-23-13-22-11-27-11-36-12-24-6-26-5-21-3-21-2-17-1h-33l-28 2-30 4-33 7-30 9-24 9-20 9-16 8-14 8-12 8-14 10-17 14-20 18-8 8-1 2h-2l-2 4-11 12-9 11-13 18-11 17-10 17-14 27-11 26-7 19-9 31-6 25-5 29-3 32-1 15v34l3 36 4 27 6 29 9 31 10 27 11 24 13 25 12 19 13 18 18 22 8 8 7 8 13 12 13 11 20 15 22 14 26 14 19 9 32 13 36 12 28 7 29 5 28 3h44l27-3 22-4 23-6 26-9 23-10 20-10 25-15 16-11 16-12 11-9 13-11 12-11 8-7 22-22 7-8 15-16 8-10 11-13 20-26 9-12 13-18 7-10 9-13 12-18 11-17 12-19 13-21 9-15 28-48 15-26 14-25 9-16 14-25 10-18 13-23 16-28 15-26 11-19 12-20 15-24 8-12 8-11 9-12 9-11 8-10 10-11 1-2h2l2-4 31-31 8-7 13-11 14-11 13-10 16-11 20-13 19-11 26-14 26-12 34-13 29-9 24-6 31-6 31-4z"/>
</svg>
